<svg width="40" height="40" viewBox="0 0 40 40" fill="#287EBC" xmlns="http://www.w3.org/2000/svg">
<path fill-rule="evenodd" clip-rule="evenodd" d="M0 0H3.01075V25.3763L4.40462 26.3291L20 36.9892L35.5954 26.3291L36.9892 25.3763V0H40V26.3291L20 40L0 26.3291V0Z" />
<path fill-rule="evenodd" clip-rule="evenodd" d="M34.8387 0H5.16125V1.01108L20.0728 5.49395L20.2147 5.53661L20.3583 5.49362L34.8387 1.15857V0ZM34.8387 3.24628L20.9319 7.4096L20.5025 7.53817L20.4547 7.69717L20.2135 7.62468L19.9739 7.6964L19.9266 7.53843L19.497 7.40927L5.16125 3.0995V6.17266L17.0438 9.78946C17.1157 9.80955 17.1844 9.83748 17.2488 9.87228C17.506 10.0112 17.6954 10.2596 17.7546 10.555C17.7692 10.6268 17.7759 10.7006 17.7742 10.7753V15.0294C17.7794 15.2428 17.7156 15.4503 17.5969 15.6223C17.4736 15.8005 17.2938 15.9366 17.0835 16.005L5.4225 20.095L5.16125 20.1867V22.3846L19.4905 17.9691L19.949 17.8278L20.0015 17.6655L20.2328 17.7403L20.4461 17.6746L20.4922 17.8242L20.9529 17.9733L34.8387 22.4657V20.2619L23.3304 15.9996C23.2683 15.9783 23.209 15.951 23.1531 15.9184C23.0242 15.8436 22.9167 15.7427 22.835 15.6251C22.7531 15.5076 22.6958 15.3717 22.6705 15.2249C22.6593 15.1612 22.6543 15.0961 22.6559 15.0305V10.7752C22.6507 10.5502 22.7223 10.3329 22.8527 10.1568C22.9835 9.98083 23.1708 9.84931 23.3877 9.78906L34.8387 6.32202V3.24628ZM24.6559 14.3577L34.8387 18.1292V8.41168L24.6559 11.4947V14.3577ZM15.7742 11.4936V14.3448L5.16125 18.0672V8.26326L15.7742 11.4936ZM34.7874 24.5512L20.3373 19.8762L20.2182 19.8376L20.0794 19.8804L5.38601 24.4081L5.16125 24.4774V24.5161L5.16129 24.5161L20 34.659L34.7874 24.5512Z" />
</svg>
